<svg width="248" height="120" viewBox="0 0 248 120" fill="none" xmlns="http://www.w3.org/2000/svg">
<path d="M27.9502 33.6397C48.5533 2.2005 75.7787 5.98488 102.759 5.98486C137.097 5.98483 210.68 -11.4814 236.434 13.2625C268.759 44.3202 226.623 96.2271 192.285 88.2218C140.777 79.4887 132.192 112.238 56.1569 103.505C12.3958 98.4785 2.19636 72.9388 27.9502 33.6397Z" fill="#110F12"/>
<path d="M15.9502 46.6397C36.5533 15.2005 63.7787 18.9849 90.7591 18.9849C125.097 18.9848 198.68 1.51865 224.434 26.2625C256.759 57.3202 214.623 109.227 180.285 101.222C128.777 92.4887 120.192 125.238 44.1569 116.505C0.395813 111.478 -9.80364 85.9388 15.9502 46.6397Z" stroke="#A379BD" stroke-width="4"/>
</svg>
