<svg width="329" height="129" viewBox="0 0 329 129" fill="none" xmlns="http://www.w3.org/2000/svg">
<path d="M33.2314 37.0656C60.8521 2.4246 97.3505 6.59438 133.521 6.59436C179.555 6.59432 278.2 -12.6506 312.726 14.6131C356.061 48.8338 299.573 106.027 253.539 97.2063C184.487 87.5838 172.978 123.668 71.0454 114.046C12.3791 108.508 -1.29434 80.3669 33.2314 37.0656Z" fill="#FAFBF9"/>
<path d="M20.7046 48.3724C48.3252 13.7314 84.8237 17.9011 120.994 17.9011C167.028 17.9011 265.673 -1.34386 300.199 25.9199C343.535 60.1405 287.046 117.334 241.012 108.513C171.96 98.8906 160.452 134.975 58.5185 125.352C-0.147751 119.814 -13.8212 91.6737 20.7046 48.3724Z" stroke="#A379BD" stroke-width="4"/>
</svg>
